<svg xmlns="http://www.w3.org/2000/svg" viewBox="0 0 600 600" width="600" height="600">
  <defs>
    <linearGradient id="bg" x1="0" y1="0" x2="0.6" y2="1">
      <stop offset="0%" stop-color="#F8F4EB"/>
      <stop offset="100%" stop-color="#EDE3D0"/>
    </linearGradient>
    <radialGradient id="halo" cx="50%" cy="44%" r="52%">
      <stop offset="0%" stop-color="#FFFFFF" stop-opacity="0.75"/>
      <stop offset="100%" stop-color="#FFFFFF" stop-opacity="0"/>
    </radialGradient>
  </defs>
  <rect width="600" height="600" fill="url(#bg)"/>
  <circle cx="300" cy="268" r="196" fill="#E6DCC5" opacity="0.55"/>
  <circle cx="300" cy="268" r="196" fill="url(#halo)"/>
  <circle cx="300" cy="268" r="196" fill="none" stroke="#B96F4A" stroke-width="1.1" opacity="0.35"/>
  <g transform="rotate(0 300 300)">
    <path d="M300.0,460.0 Q300.0,370.0 300.0,325.0 Q300.0,280.0 300.0,235.0 L300.0,190.0" fill="none" stroke="#173D32" stroke-width="3.0" stroke-linecap="round"/>
    <path d="M300.0,410.0 Q268.1,363.9 212.0,366.0 Q243.9,412.1 300.0,410.0 Z" fill="#DCE7DF" stroke="#173D32" stroke-width="2.6" stroke-linejoin="round" opacity="1.0"/>
    <path d="M300.0,410.0 Q356.1,412.1 388.0,366.0 Q331.9,363.9 300.0,410.0 Z" fill="#E4EDE5" stroke="#173D32" stroke-width="2.6" stroke-linejoin="round" opacity="1.0"/>
    <path d="M300.0,352.0 Q273.3,312.9 226.0,315.0 Q252.7,354.1 300.0,352.0 Z" fill="#DCE7DF" stroke="#173D32" stroke-width="2.6" stroke-linejoin="round" opacity="1.0"/>
    <path d="M300.0,352.0 Q347.3,354.1 374.0,315.0 Q326.7,312.9 300.0,352.0 Z" fill="#E4EDE5" stroke="#173D32" stroke-width="2.6" stroke-linejoin="round" opacity="1.0"/>
    <path d="M300.0,296.0 Q278.5,264.0 240.0,266.0 Q261.5,298.0 300.0,296.0 Z" fill="#DCE7DF" stroke="#173D32" stroke-width="2.6" stroke-linejoin="round" opacity="1.0"/>
    <path d="M300.0,296.0 Q338.5,298.0 360.0,266.0 Q321.5,264.0 300.0,296.0 Z" fill="#E4EDE5" stroke="#173D32" stroke-width="2.6" stroke-linejoin="round" opacity="1.0"/>
    <path d="M300.0,244.0 Q283.7,219.1 254.0,221.0 Q270.3,245.9 300.0,244.0 Z" fill="#DCE7DF" stroke="#173D32" stroke-width="2.6" stroke-linejoin="round" opacity="1.0"/>
    <path d="M300.0,244.0 Q329.7,245.9 346.0,221.0 Q316.3,219.1 300.0,244.0 Z" fill="#E4EDE5" stroke="#173D32" stroke-width="2.6" stroke-linejoin="round" opacity="1.0"/>
    <circle cx="300.0" cy="178.0" r="14.0" fill="#B96F4A" stroke="#173D32" stroke-width="2.2" opacity="1.0"/>
  </g>
</svg>
