<svg xmlns="http://www.w3.org/2000/svg" viewBox="0 0 600 600" width="600" height="600">
  <defs>
    <linearGradient id="bg" x1="0" y1="0" x2="0.6" y2="1">
      <stop offset="0%" stop-color="#F8F4EB"/>
      <stop offset="100%" stop-color="#EDE3D0"/>
    </linearGradient>
    <radialGradient id="halo" cx="50%" cy="44%" r="52%">
      <stop offset="0%" stop-color="#FFFFFF" stop-opacity="0.75"/>
      <stop offset="100%" stop-color="#FFFFFF" stop-opacity="0"/>
    </radialGradient>
  </defs>
  <rect width="600" height="600" fill="url(#bg)"/>
  <circle cx="300" cy="268" r="196" fill="#E6DCC5" opacity="0.55"/>
  <circle cx="300" cy="268" r="196" fill="url(#halo)"/>
  <circle cx="300" cy="268" r="196" fill="none" stroke="#B96F4A" stroke-width="1.1" opacity="0.35"/>
  <g transform="rotate(0 300 300)">
    <circle cx="300.0" cy="196.0" r="60.0" fill="#B96F4A" stroke="#173D32" stroke-width="2.8" opacity="0.9"/>
    <path d="M300,142 C290,196 290,196 300,250" fill="none" stroke="#173D32" stroke-width="1.6" opacity="0.45"/>
    <path d="M300,136 C302,122 306,116 314,112" fill="none" stroke="#173D32" stroke-width="2.4" stroke-linecap="round"/>
    <circle cx="216.0" cy="344.0" r="52.0" fill="#D89B79" stroke="#173D32" stroke-width="2.8" opacity="0.9"/>
    <path d="M216,298 C206,344 206,344 216,390" fill="none" stroke="#173D32" stroke-width="1.6" opacity="0.45"/>
    <path d="M216,292 C218,278 222,272 230,268" fill="none" stroke="#173D32" stroke-width="2.4" stroke-linecap="round"/>
    <circle cx="386.0" cy="344.0" r="52.0" fill="#B96F4A" stroke="#173D32" stroke-width="2.8" opacity="0.9"/>
    <path d="M386,298 C376,344 376,344 386,390" fill="none" stroke="#173D32" stroke-width="1.6" opacity="0.45"/>
    <path d="M386,292 C388,278 392,272 400,268" fill="none" stroke="#173D32" stroke-width="2.4" stroke-linecap="round"/>
    <path d="M300.0,262.0 Q341.3,268.2 372.0,240.0 Q330.7,233.8 300.0,262.0 Z" fill="#DCE7DF" stroke="#173D32" stroke-width="2.6" stroke-linejoin="round" opacity="1.0"/>
    <path d="M300.0,262.0 Q269.3,233.8 228.0,240.0 Q258.7,268.2 300.0,262.0 Z" fill="#DCE7DF" stroke="#173D32" stroke-width="2.6" stroke-linejoin="round" opacity="1.0"/>
    <path d="M300.0,420.0 Q280.0,445.0 300.0,470.0 Q320.0,445.0 300.0,420.0 Z" fill="#DCE7DF" stroke="#173D32" stroke-width="2.6" stroke-linejoin="round" opacity="1.0"/>
  </g>
</svg>
